<?xml version="1.0" encoding="UTF-8" standalone="no"?>
<svg
   xmlns:dc="http://purl.org/dc/elements/1.1/"
   xmlns:cc="http://creativecommons.org/ns#"
   xmlns:rdf="http://www.w3.org/1999/02/22-rdf-syntax-ns#"
   xmlns:svg="http://www.w3.org/2000/svg"
   xmlns="http://www.w3.org/2000/svg"
   xmlns:sodipodi="http://sodipodi.sourceforge.net/DTD/sodipodi-0.dtd"
   xmlns:inkscape="http://www.inkscape.org/namespaces/inkscape"
   id="svgRoot"
   viewBox="0 0 200 200"
   xml:space="preserve"
   sodipodi:version="0.32"
   inkscape:version="0.46"
   width="243.08353"
   height="255.99998"
   sodipodi:docname="Kyushu University.svg"
   inkscape:output_extension="org.inkscape.output.svg.inkscape"
   version="1.0"><metadata
   id="metadata18"><rdf:RDF><cc:Work
       rdf:about=""><dc:format>image/svg+xml</dc:format><dc:type
         rdf:resource="http://purl.org/dc/dcmitype/StillImage" /></cc:Work></rdf:RDF></metadata><sodipodi:namedview
   inkscape:window-height="667"
   inkscape:window-width="892"
   inkscape:pageshadow="2"
   inkscape:pageopacity="0.0"
   guidetolerance="10.0"
   gridtolerance="10.0"
   objecttolerance="10.0"
   borderopacity="1.0"
   bordercolor="#666666"
   pagecolor="#ffffff"
   id="base"
   showgrid="false"
   inkscape:zoom="1.8046876"
   inkscape:cx="121.54176"
   inkscape:cy="127.99999"
   inkscape:window-x="44"
   inkscape:window-y="0"
   inkscape:current-layer="svgRoot" />
<defs
   id="defs3"><inkscape:perspective
   sodipodi:type="inkscape:persp3d"
   inkscape:vp_x="0 : 526.18109 : 1"
   inkscape:vp_y="0 : 1000 : 0"
   inkscape:vp_z="744.09448 : 526.18109 : 1"
   inkscape:persp3d-origin="372.04724 : 350.78739 : 1"
   id="perspective20" />
</defs>
<g
   transform="matrix(2.4888005,0,0,-2.4888005,-142.21006,344.61175)"
   id="g7">
<path
   d="M 100.5,123.9 L 100.5,123.9 C 100.5,124.2 100.2,124.4 99.92,124.4 C 99.61,124.4 99.36,124.2 99.36,123.9 L 99.36,121.7 L 97.97,121.7 L 97.97,122.2 L 98.4,122.2 L 98.4,122.2 L 98.43,122.2 C 98.74,122.2 98.99,122.5 98.99,122.8 L 98.99,124.3 C 98.98,124.6 98.75,124.9 98.46,124.9 L 98.46,124.9 L 96.37,124.9 C 96.07,124.9 95.82,124.6 95.82,124.3 L 95.82,122.8 L 95.82,122.8 L 95.82,122.8 C 95.82,122.5 96.04,122.3 96.32,122.2 L 96.32,122.2 L 96.87,122.2 L 96.87,121.7 L 95.45,121.7 L 95.45,123.9 L 95.44,123.9 L 95.44,123.9 C 95.44,124.2 95.19,124.4 94.89,124.4 C 94.58,124.4 94.33,124.2 94.33,123.9 L 94.33,121.6 L 94.34,121.6 L 94.33,121.6 C 94.33,121.1 94.75,120.6 95.27,120.6 L 96.87,120.6 L 96.87,120.2 L 96.28,120.2 L 96.28,120.2 C 95.97,120.2 95.72,120 95.72,119.7 C 95.72,119.4 95.97,119.1 96.28,119.1 L 97.08,119.1 L 97.08,119.1 C 97.57,119.1 97.95,119.5 97.97,120 L 97.97,120.6 L 99.58,120.6 L 99.58,120.6 C 100.1,120.7 100.4,121 100.5,121.5 L 100.5,121.5 L 100.5,123.9 L 100.5,123.9 M 96.93,123.8 L 97.88,123.8 L 97.88,123.3 L 96.93,123.3 L 96.93,123.8 M 101.8,135.6 L 101.8,133.5 L 101.8,133.5 L 101.8,133.5 C 101.8,133.2 101.6,133 101.3,133 C 101,133 100.7,133.2 100.7,133.5 L 100.7,135.4 L 99.31,135.4 L 99.31,133.8 C 99.31,133.5 99.06,133.3 98.76,133.3 C 98.45,133.3 98.21,133.5 98.21,133.8 L 98.21,133.8 L 98.2,133.8 L 98.2,135.4 L 96.61,135.4 L 96.61,133.8 L 96.6,133.8 L 96.6,133.8 C 96.6,133.5 96.36,133.3 96.05,133.3 C 95.74,133.3 95.5,133.5 95.5,133.8 L 95.5,135.4 L 94.09,135.4 L 94.09,133.5 L 94.09,133.5 L 94.09,133.5 C 94.09,133.2 93.84,133 93.54,133 C 93.23,133 92.98,133.2 92.98,133.5 L 92.98,133.5 L 92.98,133.5 L 92.98,135.5 L 92.97,135.6 C 92.97,136.1 93.37,136.5 93.88,136.5 L 96.82,136.5 L 96.82,137.1 L 96.82,137.1 C 96.85,137.4 97.08,137.6 97.37,137.6 C 97.67,137.6 97.91,137.4 97.93,137.1 L 97.93,137.1 L 97.93,136.5 L 100.9,136.5 C 101.4,136.5 101.8,136.1 101.8,135.6 L 101.8,135.6 M 98.63,129.9 C 98.61,129.6 98.34,129.4 98.03,129.4 C 97.91,129.4 97.8,129.5 97.72,129.5 L 97.72,129.5 L 97.34,129.9 L 96.79,129.4 L 96.78,129.4 C 96.67,129.3 96.52,129.2 96.35,129.3 C 96.04,129.3 95.82,129.6 95.85,129.9 C 95.86,130 95.96,130.2 96.1,130.3 L 96.54,130.7 L 96.22,131 L 96.22,131 C 96.13,131.1 96.08,131.3 96.09,131.4 C 96.12,131.7 96.39,131.9 96.69,131.9 C 96.81,131.9 96.91,131.9 96.99,131.8 L 97,131.8 L 97.05,131.7 L 97.37,131.4 L 97.95,131.9 C 98.06,132 98.22,132.1 98.4,132.1 C 98.7,132.1 98.93,131.8 98.9,131.5 C 98.89,131.3 98.81,131.2 98.69,131.1 L 98.7,131.1 L 98.17,130.6 L 98.49,130.3 L 98.49,130.3 C 98.59,130.2 98.65,130.1 98.63,129.9 M 98.63,127.2 C 98.61,126.9 98.34,126.7 98.03,126.7 C 97.91,126.7 97.8,126.8 97.72,126.9 L 97.72,126.9 L 97.34,127.2 L 96.79,126.7 L 96.78,126.7 C 96.67,126.6 96.52,126.6 96.35,126.6 C 96.04,126.6 95.82,126.9 95.85,127.2 C 95.86,127.4 95.96,127.5 96.1,127.6 L 96.54,128 L 96.22,128.3 L 96.22,128.3 C 96.13,128.4 96.08,128.6 96.09,128.7 C 96.12,129 96.39,129.3 96.69,129.2 C 96.81,129.2 96.91,129.2 96.99,129.1 L 97,129.1 L 97.05,129.1 L 97.37,128.7 L 97.95,129.3 C 98.06,129.4 98.22,129.4 98.4,129.4 C 98.7,129.4 98.93,129.1 98.9,128.8 C 98.89,128.7 98.81,128.5 98.69,128.4 L 98.7,128.4 L 98.17,128 L 98.49,127.7 L 98.49,127.7 C 98.59,127.5 98.65,127.4 98.63,127.2 M 93.82,128.5 L 93.82,127.9 L 94.7,127.9 L 94.7,127.9 C 95,127.9 95.25,127.7 95.25,127.4 C 95.25,127.1 95,126.8 94.7,126.8 L 94.7,126.8 L 93.79,126.8 L 93.64,126.8 C 93.12,126.8 92.7,127.2 92.7,127.8 L 92.71,127.8 L 92.71,131.4 C 92.72,131.7 92.96,132 93.26,132 C 93.56,132 93.81,131.7 93.81,131.4 L 93.82,131.4 L 93.82,131.4 L 94.7,131.4 C 95.01,131.3 95.25,131.1 95.25,130.8 C 95.25,130.5 95.01,130.3 94.7,130.2 L 94.7,130.2 L 93.82,130.2 L 93.82,129.6 L 94.68,129.6 L 94.68,129.6 L 94.69,129.6 C 95,129.6 95.25,129.4 95.25,129.1 C 95.25,128.8 95,128.5 94.69,128.5 L 94.68,128.5 L 94.68,128.5 L 93.82,128.5 M 100.1,128.5 L 100.1,128.5 L 100.1,128.5 C 99.81,128.5 99.56,128.8 99.56,129.1 C 99.56,129.4 99.81,129.6 100.1,129.6 L 100.1,129.6 L 100.1,129.6 L 101,129.6 L 101,130.2 L 100.1,130.2 L 100.1,130.2 C 99.8,130.3 99.56,130.5 99.56,130.8 C 99.56,131.1 99.8,131.3 100.1,131.4 L 101,131.4 L 101,131.4 L 101,131.4 C 101,131.7 101.2,132 101.5,132 C 101.9,132 102.1,131.7 102.1,131.4 L 102.1,131.4 L 102.1,127.8 C 102.1,127.2 101.7,126.8 101.2,126.8 L 101,126.8 L 100.1,126.8 L 100.1,126.8 C 99.81,126.8 99.56,127.1 99.56,127.4 C 99.56,127.7 99.81,127.9 100.1,127.9 L 100.1,127.9 L 101,127.9 L 101,128.5 L 100.1,128.5 M 102.1,122.1 L 102.1,122.1 L 102.1,122.1 C 102.1,121.8 101.8,121.6 101.5,121.6 C 101.2,121.6 101,121.8 101,122.1 L 101,125.4 L 93.84,125.4 L 93.84,122.1 C 93.84,121.8 93.59,121.6 93.29,121.6 C 92.98,121.6 92.74,121.8 92.74,122.1 L 92.73,122.1 L 92.73,125.5 C 92.73,126.1 93.15,126.5 93.66,126.5 L 93.66,126.5 L 101.2,126.5 L 101.2,126.5 C 101.7,126.5 102.1,126 102.1,125.5 L 102.1,122.1 M 111,136.8 L 100.7,109.2 L 100.6,109.2 L 108.6,138.2 C 109.4,137.7 110.2,137.3 111,136.8 M 117.2,131.2 L 102.6,108.2 L 102.5,108.2 L 115.5,133.1 C 116.1,132.5 116.7,131.9 117.2,131.2 M 121.1,124.1 L 104.1,106.7 L 104,106.7 L 120.2,126.3 C 120.5,125.6 120.8,124.8 121.1,124.1 M 122.6,116.4 L 105,104.8 L 105,104.9 L 122.4,118.7 C 122.5,117.9 122.5,117.2 122.6,116.4 M 121.8,109.3 L 105.2,102.7 L 105.2,102.8 L 122.2,111.3 C 122.1,110.6 121.9,109.9 121.8,109.3 M 119.3,103.2 L 104.6,100.8 L 104.7,100.9 L 120.2,104.9 C 119.9,104.4 119.7,103.8 119.3,103.2 M 116.1,98.7 L 103.5,99.23 L 103.6,99.36 L 117.1,100 C 116.8,99.52 116.4,99.1 116.1,98.7 M 113.7,96.44 C 113.4,96.14 113,95.84 112.6,95.56 L 102.3,98.23 L 102.4,98.33 L 113.7,96.44 M 110.4,94.06 C 110.1,93.86 109.8,93.66 109.4,93.47 L 101.1,97.6 L 101.3,97.68 L 110.4,94.06 M 107.5,92.53 C 107.2,92.4 106.9,92.28 106.6,92.16 L 100.2,97.25 L 100.3,97.29 L 107.5,92.53 M 104.9,91.56 C 104.6,91.48 104.4,91.4 104.1,91.33 L 99.38,97.04 L 99.49,97.07 L 104.9,91.56 M 102.6,90.97 C 102.4,90.92 102.1,90.87 101.9,90.83 L 98.73,96.92 L 98.82,96.94 L 102.6,90.97 M 100.6,90.63 C 100.4,90.6 100.1,90.57 99.93,90.55 L 98.17,96.86 L 98.26,96.87 L 100.6,90.63 M 98.69,90.46 C 98.48,90.44 98.27,90.44 98.06,90.43 L 97.66,96.83 L 97.74,96.84 L 98.69,90.46 M 97.02,96.84 L 97.1,96.83 L 96.7,90.44 C 96.49,90.44 96.28,90.45 96.07,90.46 L 97.02,96.84 M 96.5,96.87 L 96.59,96.86 L 94.83,90.55 C 94.61,90.58 94.39,90.6 94.17,90.63 L 96.5,96.87 M 95.94,96.94 L 96.03,96.92 L 92.85,90.83 C 92.62,90.88 92.38,90.93 92.14,90.98 L 95.94,96.94 M 95.27,97.07 L 95.38,97.04 L 90.66,91.34 C 90.4,91.41 90.13,91.49 89.87,91.58 L 95.27,97.07 M 94.46,97.29 L 94.58,97.25 L 88.18,92.17 C 87.88,92.29 87.58,92.41 87.28,92.54 L 94.46,97.29 M 93.49,97.68 L 93.65,97.6 L 85.36,93.49 C 85.02,93.68 84.68,93.87 84.34,94.08 L 93.49,97.68 M 92.36,98.33 L 92.51,98.23 L 82.16,95.57 C 81.79,95.85 81.43,96.14 81.07,96.44 L 92.36,98.33 M 77.69,99.95 L 91.16,99.36 L 91.28,99.23 L 78.75,98.7 C 78.38,99.1 78.03,99.52 77.69,99.95 M 74.61,104.9 L 90.09,100.9 L 90.16,100.8 L 75.47,103.2 C 75.16,103.8 74.87,104.3 74.61,104.9 M 72.6,111.3 L 89.56,102.8 L 89.57,102.7 L 73.05,109.2 C 72.87,109.9 72.72,110.6 72.6,111.3 M 72.42,118.7 L 89.76,104.9 L 89.73,104.8 L 72.25,116.4 C 72.27,117.1 72.33,117.9 72.42,118.7 M 74.61,126.3 L 90.73,106.7 L 90.67,106.7 L 73.67,124 C 73.95,124.8 74.26,125.6 74.61,126.3 M 79.31,133.1 L 92.25,108.2 L 92.18,108.2 L 77.59,131.1 C 78.13,131.8 78.7,132.5 79.31,133.1 M 83.82,136.8 C 84.57,137.3 85.36,137.7 86.16,138.1 L 94.17,109.2 L 94.1,109.2 L 83.82,136.8 M 100.1,119.8 L 98.56,109.7 L 98.48,109.7 L 99.1,119.8 L 100,119.8 L 100,119.8 L 100.1,119.8 M 92.19,136.8 L 91.7,140.1 C 92.58,140.3 93.48,140.5 94.4,140.6 L 94.59,137.4 L 93.16,137.4 L 93.16,137.4 C 92.73,137.4 92.37,137.2 92.19,136.8 M 95.76,118.3 L 96.28,109.7 L 96.2,109.7 L 94.85,118.8 C 95.05,118.5 95.38,118.3 95.76,118.3 M 100.2,137.4 L 100.4,140.6 C 101.3,140.5 102.2,140.3 103.1,140.1 L 102.5,136.6 C 102.4,137 102,137.4 101.4,137.4 L 101.4,137.4 L 100.2,137.4 M 99.2,106.2 L 99.21,106.2 L 97.4,100.2 L 95.64,106 L 95.62,106.1 C 95.58,106.3 95.55,106.5 95.55,106.6 C 95.55,107.6 96.38,108.5 97.41,108.5 C 98.43,108.5 99.26,107.6 99.26,106.6 C 99.26,106.5 99.25,106.4 99.22,106.3 L 99.2,106.2 M 97.23,100.2 L 92.69,100.2 C 92.6,100.2 92.51,100.2 92.42,100.2 L 92.4,100.2 L 92.4,100.2 C 91.71,100.3 91.12,100.8 90.99,101.6 C 90.84,102.4 91.42,103.3 92.29,103.4 C 92.58,103.5 92.87,103.4 93.13,103.3 C 93.24,103.3 93.35,103.3 93.46,103.2 C 93.55,103.1 93.63,103.1 93.71,103 L 97.23,100.2 M 101.1,103 C 101.2,103.1 101.3,103.1 101.4,103.2 C 101.5,103.3 101.6,103.3 101.7,103.3 C 101.9,103.4 102.2,103.5 102.5,103.4 C 103.4,103.3 104,102.4 103.8,101.6 C 103.7,100.8 103.1,100.3 102.4,100.2 L 102.4,100.2 L 102.4,100.2 C 102.3,100.2 102.2,100.2 102.1,100.2 L 97.58,100.2"
   class="ps00"
   id="path9"
   style="fill:#7b1140" />
<path
   d="M 59.97,56.5 L 59.97,60.18 L 59.4,60.42 L 59.4,60.61 L 61.39,60.61 L 61.39,60.42 L 60.8,60.18 L 60.82,56.5 L 61.39,56.26 L 61.39,56.07 L 59.4,56.07 L 59.4,56.26 L 59.97,56.5 M 60.86,58.4 L 62.42,60.21 L 62,60.42 L 62,60.61 L 63.63,60.61 L 63.63,60.42 L 63.05,60.19 L 61.64,58.72 L 63.17,56.49 L 63.73,56.26 L 63.73,56.07 L 62.42,56.07 L 60.86,58.4 M 66.54,58.69 L 67.52,60.19 L 67.04,60.42 L 67.04,60.61 L 68.57,60.61 L 68.57,60.42 L 68.04,60.19 L 66.77,58.33 L 66.77,56.5 L 67.52,56.26 L 67.52,56.07 L 65.15,56.07 L 65.15,56.25 L 65.89,56.5 L 65.89,58.16 L 64.61,60.19 L 64.1,60.42 L 64.1,60.61 L 66.1,60.61 L 66.1,60.42 L 65.61,60.19 L 66.54,58.69 M 70.59,60.18 L 70.59,57.42 C 70.59,56.69 70.91,56.34 71.61,56.34 C 71.93,56.34 72.18,56.41 72.37,56.55 C 72.63,56.75 72.72,57.01 72.72,57.51 L 72.72,60.18 L 72.15,60.42 L 72.15,60.61 L 73.81,60.61 L 73.81,60.42 L 73.23,60.18 L 73.23,57.64 C 73.23,57 73.06,56.6 72.66,56.32 C 72.32,56.08 71.92,55.97 71.42,55.97 C 70.32,55.97 69.72,56.49 69.72,57.42 L 69.72,60.18 L 69.14,60.42 L 69.14,60.61 L 71.14,60.61 L 71.14,60.42 L 70.59,60.18 M 74.49,56.27 L 74.49,57.39 L 74.8,57.39 L 75.15,56.45 C 75.29,56.41 75.34,56.41 75.56,56.41 C 76.25,56.41 76.56,56.62 76.56,57.08 C 76.56,57.38 76.46,57.52 76.03,57.81 L 75.26,58.31 C 74.75,58.64 74.53,58.99 74.53,59.46 C 74.53,60.19 75.13,60.67 76.06,60.67 C 76.3,60.67 76.46,60.65 76.81,60.57 L 77.19,60.48 L 77.3,60.46 L 77.3,59.36 L 77.01,59.36 L 76.67,60.26 C 76.53,60.3 76.49,60.31 76.27,60.31 C 75.62,60.31 75.31,60.1 75.31,59.68 C 75.31,59.4 75.39,59.3 75.86,58.99 L 76.62,58.5 C 76.99,58.26 77.08,58.18 77.2,58 C 77.33,57.81 77.4,57.54 77.4,57.29 C 77.4,56.55 76.79,56.04 75.89,56.04 C 75.63,56.04 75.05,56.13 74.49,56.27 M 79.71,58.27 L 79.71,56.5 L 80.28,56.26 L 80.28,56.07 L 78.25,56.07 L 78.25,56.26 L 78.82,56.5 L 78.82,60.18 L 78.25,60.42 L 78.25,60.61 L 80.28,60.61 L 80.28,60.42 L 79.71,60.18 L 79.71,58.61 L 81.67,58.61 L 81.67,60.18 L 81.09,60.42 L 81.09,60.61 L 83.12,60.61 L 83.12,60.42 L 82.55,60.18 L 82.55,56.5 L 83.12,56.26 L 83.12,56.07 L 81.09,56.07 L 81.09,56.26 L 81.67,56.5 L 81.67,58.27 L 79.71,58.27 M 85.36,60.18 L 85.36,57.42 C 85.36,56.69 85.68,56.34 86.37,56.34 C 86.7,56.34 86.95,56.41 87.13,56.55 C 87.39,56.75 87.49,57.01 87.49,57.51 L 87.49,60.18 L 86.91,60.42 L 86.91,60.61 L 88.57,60.61 L 88.57,60.42 L 88,60.18 L 88,57.64 C 88,57 87.82,56.6 87.42,56.32 C 87.09,56.08 86.68,55.97 86.18,55.97 C 85.09,55.97 84.48,56.49 84.48,57.42 L 84.48,60.18 L 83.9,60.42 L 83.9,60.61 L 85.9,60.61 L 85.9,60.42 L 85.36,60.18 M 92.83,60.18 L 92.83,57.42 C 92.83,56.69 93.15,56.34 93.84,56.34 C 94.17,56.34 94.42,56.41 94.6,56.55 C 94.86,56.75 94.96,57.01 94.96,57.51 L 94.96,60.18 L 94.39,60.42 L 94.39,60.61 L 96.04,60.61 L 96.04,60.42 L 95.47,60.18 L 95.47,57.64 C 95.47,57 95.29,56.6 94.89,56.32 C 94.56,56.08 94.15,55.97 93.65,55.97 C 92.55,55.97 91.95,56.49 91.95,57.42 L 91.95,60.18 L 91.37,60.42 L 91.37,60.61 L 93.37,60.61 L 93.37,60.42 L 92.83,60.18 M 97.85,59.62 L 97.85,56.5 L 98.39,56.26 L 98.39,56.07 L 96.83,56.07 L 96.83,56.26 L 97.41,56.5 L 97.41,60.18 L 96.83,60.42 L 96.83,60.61 L 98.17,60.61 L 100.5,57.54 L 100.5,60.18 L 99.95,60.42 L 99.95,60.61 L 101.5,60.61 L 101.5,60.42 L 100.9,60.18 L 100.9,56 L 100.6,56 L 97.85,59.62 M 102.9,56.5 L 102.9,60.18 L 102.3,60.42 L 102.3,60.61 L 104.3,60.61 L 104.3,60.42 L 103.8,60.18 L 103.8,56.5 L 104.3,56.26 L 104.3,56.07 L 102.3,56.07 L 102.3,56.26 L 102.9,56.5 M 107.1,56 L 105.5,60.19 L 105,60.42 L 105,60.61 L 106.9,60.61 L 106.9,60.42 L 106.4,60.19 L 107.3,57.81 C 107.4,57.58 107.5,57.44 107.5,57.14 L 108.8,60.19 L 108.3,60.42 L 108.3,60.61 L 109.8,60.61 L 109.8,60.42 L 109.3,60.19 L 107.5,56 L 107.1,56 M 111.9,58.2 L 111.9,56.38 L 113.3,56.38 L 113.7,57.15 L 114,57.15 L 113.9,56.07 L 110.4,56.07 L 110.4,56.26 L 111,56.5 L 111,60.18 L 110.4,60.42 L 110.4,60.61 L 113.9,60.61 L 113.9,59.52 L 113.6,59.52 L 113.3,60.3 L 111.9,60.3 L 111.9,58.54 L 113,58.54 L 113.3,59.15 L 113.6,59.15 L 113.6,57.63 L 113.3,57.63 L 113,58.2 L 111.9,58.2 M 116.3,58.21 L 116.3,56.5 L 116.9,56.26 L 116.9,56.07 L 114.9,56.07 L 114.9,56.26 L 115.5,56.5 L 115.5,60.18 L 114.9,60.42 L 114.9,60.61 L 116.9,60.61 C 117.5,60.61 117.7,60.53 118,60.32 C 118.2,60.12 118.4,59.84 118.4,59.51 C 118.4,58.89 118,58.45 117.3,58.32 L 118.6,56.48 L 119.1,56.26 L 119.1,56.07 L 117.8,56.07 L 116.5,58.21 L 116.3,58.21 M 116.3,58.5 L 116.6,58.5 C 117.1,58.5 117.5,58.89 117.5,59.43 C 117.5,59.97 117.1,60.3 116.6,60.3 L 116.3,60.3 L 116.3,58.5 M 119.8,56.27 L 119.8,57.39 L 120.2,57.39 L 120.5,56.45 C 120.6,56.41 120.7,56.41 120.9,56.41 C 121.6,56.41 121.9,56.62 121.9,57.08 C 121.9,57.38 121.8,57.52 121.4,57.81 L 120.6,58.31 C 120.1,58.64 119.9,58.99 119.9,59.46 C 119.9,60.19 120.5,60.67 121.4,60.67 C 121.7,60.67 121.8,60.65 122.2,60.57 L 122.5,60.48 L 122.7,60.46 L 122.7,59.36 L 122.4,59.36 L 122,60.26 C 121.9,60.3 121.8,60.31 121.6,60.31 C 121,60.31 120.7,60.1 120.7,59.68 C 120.7,59.4 120.7,59.3 121.2,58.99 L 122,58.5 C 122.3,58.26 122.4,58.18 122.5,58 C 122.7,57.81 122.8,57.54 122.8,57.29 C 122.8,56.55 122.1,56.04 121.2,56.04 C 121,56.04 120.4,56.13 119.8,56.27 M 124.2,56.5 L 124.2,60.18 L 123.6,60.42 L 123.6,60.61 L 125.6,60.61 L 125.6,60.42 L 125.1,60.18 L 125.1,56.5 L 125.6,56.26 L 125.6,56.07 L 123.6,56.07 L 123.6,56.26 L 124.2,56.5 M 128.8,60.27 L 128.8,56.5 L 129.5,56.26 L 129.5,56.07 L 127.1,56.07 L 127.1,56.26 L 127.9,56.5 L 127.9,60.27 L 127,60.27 L 126.7,59.32 L 126.4,59.32 L 126.4,60.61 L 130.2,60.61 L 130.2,59.32 L 129.9,59.32 L 129.6,60.27 L 128.8,60.27 M 133.2,58.69 L 134.2,60.19 L 133.7,60.42 L 133.7,60.61 L 135.3,60.61 L 135.3,60.42 L 134.7,60.19 L 133.5,58.33 L 133.5,56.5 L 134.2,56.26 L 134.2,56.07 L 131.8,56.07 L 131.8,56.25 L 132.6,56.5 L 132.6,58.16 L 131.3,60.19 L 130.8,60.42 L 130.8,60.61 L 132.8,60.61 L 132.8,60.42 L 132.3,60.19"
   class="ps01"
   id="path11"
   style="fill:#221e1f" />
<path
   d="M 92.45,83.18 L 94.66,83.08 L 94.66,65.74 L 92.45,65.54 L 92.45,83.18 M 89.06,78.6 C 89.83,76.46 90.1,73.1 90.19,72.56 C 91.04,73.02 91.55,73.54 92.15,74.19 C 91.55,76.25 90.22,78.12 89.44,79.03 L 89.06,78.6 M 83.08,78.64 C 83.86,76.65 84.35,74.01 84.47,72.48 C 85.21,72.94 86.09,73.9 86.36,74.34 C 86.01,75.23 85,77.28 83.47,79.04 L 83.08,78.64 M 86.5,67.2 L 88.7,67.36 L 88.7,82.72 L 86.5,82.81 L 86.5,67.2 M 77.4,73.7 L 77.37,73.66 L 77.41,73.62 C 77.53,73.49 78.36,72.63 79.11,72.08 L 79.17,72.04 L 79.2,72.11 C 79.99,74.03 80.27,77.6 80.27,78.65 L 79.71,79.27 C 79.4,77.37 78.47,75.3 77.4,73.7 M 80.63,76.52 C 80.63,70.64 80.3,68.59 77.73,66.02 L 78.17,65.53 C 81.12,67.87 82.84,69.82 82.84,76.23 L 82.84,83.08 L 80.63,83.18 L 80.63,76.52 M 107.7,76.85 L 115.1,76.85 L 115.5,77.25 L 113.5,79.36 L 112.2,77.76 L 107.6,77.76 C 107.6,78.57 107.6,79.36 107.6,81.03 L 107.6,83.31 L 105.4,83.41 C 105.4,83.41 105.4,79.92 105.3,77.76 L 97.99,77.76 L 98.16,76.85 L 105.3,76.85 C 105.3,76.72 105.3,76.46 105.3,76.46 C 105,69.58 98.39,66.44 97.44,65.97 L 97.91,65.51 C 105.1,68.01 106.8,72.19 107.4,75.69 C 108.1,71.61 110.8,67.15 113.7,65.48 C 114.3,65.95 115.2,66.71 115.9,67.1 C 114.3,68.06 109.2,70.85 107.7,76.85 M 125.5,82.82 C 125.7,83.03 125.9,83.23 126,83.37 C 127.1,82.82 128.9,81.58 129.5,80.64 C 129.1,80.15 128.3,79.59 127.4,79.09 C 127,80.09 126.7,81.3 125.5,82.82 M 121.1,82.57 C 121.2,82.85 121.3,82.95 121.5,83.17 C 122.4,82.79 124.2,81.79 125.3,80.78 C 124.7,80.09 124.1,79.55 123.3,79.04 C 122.9,79.78 122.3,81.17 121.1,82.57 M 134.8,73.66 L 136.8,71.67 L 136.4,71.24 L 128.8,71.24 L 128.8,67.1 C 128.8,66.71 128.7,66.27 128.4,66 C 127.7,65.34 126,65.47 126,65.47 C 126,65.47 125.9,65.99 125.6,66.29 C 125.4,66.54 124,67.19 123.2,67.4 L 123,68 C 124.2,67.83 125.5,67.66 126.3,67.61 C 126.4,67.6 126.5,67.65 126.5,67.78 L 126.5,71.24 L 119.1,71.24 L 118.9,72.14 L 126.5,72.14 L 126.5,73.85 L 128.5,73.68 C 128.9,74.05 129.3,74.64 129.8,75.51 L 122,75.51 L 121.9,76.34 C 121.9,76.35 128.4,76.34 130.2,76.34 L 131.2,77.47 L 133.4,75.12 C 133.4,75.12 133.2,74.99 131.9,74.68 C 130.7,74.02 129.7,73.48 128.8,73.03 L 128.8,72.14 L 133.5,72.14 L 134.8,73.66 M 118.2,76.38 C 118.8,77.03 119.9,77.98 120.4,79.96 C 120.8,79.87 121.4,79.66 121.4,79.66 C 121.4,79.66 121.4,79.17 121.4,78.98 L 130.1,78.98 C 131.2,80.17 132.2,83.51 132.2,83.51 C 132.2,83.51 133.9,82.59 134.5,82.05 C 134.2,81.37 132.4,79.62 131.3,78.98 L 133.9,78.98 L 135.4,80.26 L 137.5,77.59 L 136.3,77.25 L 134.1,74.93 C 134.1,74.93 133.8,75.39 133.7,75.64 C 133.9,76.36 134.3,77.36 134.3,78.11 L 134.3,78.12 L 121.3,78.12 C 121.2,77.11 121,75.65 120.2,74.63 C 119.4,75.25 118.9,75.66 118.2,76.38 M 73.56,72.01 L 73.11,72.2 C 73.11,72.2 72.92,68.79 72.87,68.3 C 72.82,67.82 72.76,67.66 71.92,67.66 C 71.07,67.66 70.93,67.68 70.93,68.33 L 70.93,76.43 L 71.76,77.07 L 69.75,79.41 L 68.5,77.9 L 65.5,77.9 C 65.52,78.77 65.64,83.19 65.64,83.19 L 63.31,83.28 C 63.31,83.28 63.26,79.82 63.23,77.9 L 58.16,77.9 L 58.33,77 L 63.21,77 C 63.05,70.96 62.23,68.33 57.14,66.03 L 57.68,65.59 C 64.11,67.98 65.15,71.22 65.46,77 L 68.68,77 L 68.68,67.57 C 68.68,65.95 69.54,65.66 71.97,65.66 L 71.99,65.66 C 72.99,65.66 74.13,65.66 74.72,66.26 C 74.99,66.53 75.14,66.92 75.13,67.5 C 74.18,67.55 73.91,69.15 73.56,72.01"
   class="ps01"
   id="path13"
   style="fill:#221e1f" />
<g
   id="xfrm1"
   transform="scale(200,200)">
<g
   id="frm2"
   transform="scale(1e-2,1e-2)">
</g>
</g>
</g>
</svg>