<?xml version="1.0" standalone="no"?>
<!DOCTYPE svg PUBLIC "-//W3C//DTD SVG 20010904//EN"
 "http://www.w3.org/TR/2001/REC-SVG-20010904/DTD/svg10.dtd">
<svg version="1.0" xmlns="http://www.w3.org/2000/svg"
 width="5000.000000pt" height="4868.000000pt" viewBox="0 0 5000.000000 4868.000000"
 preserveAspectRatio="xMidYMid meet">
<metadata>
Created by potrace 1.16, written by Peter Selinger 2001-2019
</metadata>
<g transform="translate(0.000000,4868.000000) scale(0.100000,-0.100000)"
fill="#000000" stroke="none">
<path d="M24148 46753 l-78 -4 0 -68 c0 -37 3 -156 7 -264 l6 -197 239 0 238
0 0 118 c0 66 -3 187 -7 270 l-6 152 -161 -2 c-89 -1 -196 -4 -238 -5z"/>
<path d="M18690 46040 c-301 -27 -649 -141 -869 -287 -352 -234 -544 -625
-502 -1024 34 -323 159 -575 355 -713 231 -164 443 -194 1156 -161 715 33 932
5 1073 -137 99 -101 167 -278 167 -437 0 -47 -5 -106 -11 -131 -62 -269 -407
-512 -869 -611 -152 -33 -381 -33 -495 -1 -260 75 -432 241 -546 528 -17 44
-34 82 -38 86 -5 6 -457 -115 -467 -125 -8 -8 58 -193 100 -283 145 -305 399
-529 715 -628 378 -119 896 -53 1343 170 231 115 460 295 584 455 190 247 234
562 129 924 -110 378 -353 619 -695 689 -177 36 -283 39 -734 21 -442 -18
-835 -16 -930 4 -219 48 -356 237 -356 494 0 108 11 158 61 264 43 94 111 173
203 235 206 141 584 236 825 208 272 -31 440 -160 577 -445 22 -44 40 -82 41
-84 3 -5 456 120 466 129 9 8 -54 193 -95 274 -79 159 -208 314 -326 395 -215
146 -544 218 -862 191z"/>
<path d="M24093 45418 c3 -167 14 -771 22 -1343 9 -572 19 -1055 21 -1073 l5
-34 234 4 c128 2 235 5 238 8 2 3 -6 586 -19 1295 -13 710 -23 1325 -23 1368
l-1 77 -242 0 -241 0 6 -302z"/>
<path d="M26396 45694 c-244 -44 -448 -154 -636 -343 -305 -306 -455 -750
-437 -1290 13 -384 118 -653 350 -898 183 -193 404 -306 677 -348 123 -19 350
-19 467 0 313 51 567 211 758 480 97 136 193 350 162 360 -17 5 -375 35 -418
35 -34 0 -38 -3 -53 -43 -27 -73 -112 -192 -182 -255 -133 -123 -294 -182
-495 -182 -331 0 -540 112 -659 353 -74 150 -101 264 -107 465 l-6 163 64 -7
c329 -33 1926 -170 1931 -165 14 12 31 349 25 491 -13 307 -79 529 -212 715
-164 230 -483 421 -785 470 -117 19 -337 18 -444 -1z m464 -424 c317 -92 480
-329 506 -739 l7 -103 -49 6 c-65 8 -1409 126 -1439 126 l-23 0 15 76 c60 321
274 568 557 645 98 27 316 21 426 -11z"/>
<path d="M22145 45664 c-280 -43 -500 -156 -685 -350 -168 -177 -273 -384
-331 -653 -26 -124 -37 -447 -20 -612 44 -420 181 -731 431 -979 122 -121 235
-196 370 -247 141 -53 217 -66 385 -66 234 -1 425 42 620 138 359 177 553 496
582 958 6 91 5 97 -13 97 -66 -1 -429 -52 -435 -61 -4 -6 -10 -38 -13 -71 -10
-85 -50 -218 -93 -304 -114 -230 -312 -344 -598 -344 -219 0 -372 75 -496 243
-156 209 -234 476 -246 832 -9 280 24 472 114 655 59 120 162 228 265 278 180
88 432 105 604 41 135 -51 277 -222 340 -409 10 -30 21 -58 24 -63 6 -7 440
40 449 49 7 7 -40 175 -71 254 -122 309 -292 481 -569 574 -162 54 -415 71
-614 40z"/>
<path d="M28946 45361 c-12 -18 -647 -2655 -642 -2666 5 -14 437 -118 446
-108 4 4 54 199 110 433 320 1333 327 1357 475 1505 214 216 486 276 797 179
202 -64 312 -209 325 -429 3 -49 0 -126 -6 -170 -6 -44 -106 -473 -222 -953
-116 -480 -209 -875 -206 -878 11 -12 452 -113 458 -106 9 10 434 1774 456
1892 12 64 17 147 18 255 0 137 -4 171 -23 240 -79 274 -296 461 -640 551
-337 88 -640 35 -926 -161 -38 -25 -69 -45 -71 -43 -2 2 16 82 40 178 24 96
40 178 37 182 -4 4 -93 28 -197 53 -105 25 -197 48 -207 51 -9 2 -19 0 -22 -5z"/>
<path d="M13960 44212 c-350 -175 -512 -374 -498 -609 8 -122 54 -243 189
-494 66 -121 117 -224 114 -228 -2 -5 -73 -45 -157 -91 -84 -45 -156 -85 -161
-89 -5 -5 146 -301 169 -329 1 -2 78 37 170 87 92 50 168 90 169 89 2 -2 254
-466 560 -1033 307 -566 562 -1034 566 -1039 9 -10 409 203 409 217 0 5 -253
475 -561 1044 -439 809 -559 1037 -548 1044 8 5 98 54 202 110 103 55 187 102
187 103 0 3 -171 319 -176 325 -2 2 -90 -43 -196 -100 -106 -57 -198 -105
-205 -107 -14 -4 -182 333 -214 428 -24 76 -21 116 15 170 30 45 124 108 218
147 37 15 68 31 68 36 0 8 -188 357 -199 369 -4 4 -58 -18 -121 -50z"/>
<path d="M32575 44260 c-177 -28 -397 -121 -546 -231 -212 -158 -391 -392
-527 -692 -181 -401 -225 -752 -137 -1092 94 -361 324 -615 683 -756 352 -137
677 -137 950 0 105 53 183 113 290 225 89 94 236 298 229 319 -3 10 -98 50
-373 159 l-41 17 -46 -62 c-66 -90 -162 -183 -245 -238 -174 -115 -340 -134
-550 -63 -216 72 -351 198 -419 391 -27 74 -28 87 -28 268 0 177 2 197 29 300
54 208 157 439 272 612 78 117 239 278 329 331 121 71 181 87 325 86 110 0
134 -3 205 -28 199 -69 338 -172 400 -299 49 -101 69 -213 61 -347 -4 -58 -9
-119 -12 -135 l-6 -31 208 -82 c115 -46 211 -79 216 -74 4 4 20 64 35 133 23
106 27 147 27 289 -1 151 -3 173 -28 255 -77 255 -277 465 -581 611 -123 59
-227 96 -337 120 -88 19 -300 27 -383 14z"/>
<path d="M35175 42954 c-470 -83 -858 -408 -1121 -938 -193 -390 -231 -721
-119 -1060 40 -124 69 -183 143 -296 145 -219 419 -412 722 -508 132 -42 226
-56 360 -55 224 2 426 68 643 210 78 52 217 178 217 198 0 7 -88 62 -194 124
l-195 112 -63 -51 c-81 -66 -224 -136 -313 -155 -203 -42 -407 4 -611 140
-155 103 -254 240 -290 402 -40 182 11 457 128 687 l23 45 860 -495 c473 -273
865 -498 870 -500 24 -10 233 408 288 574 57 171 72 258 71 417 0 172 -23 274
-93 421 -70 147 -140 245 -260 365 -153 153 -302 247 -504 314 -190 64 -384
81 -562 49z m367 -419 c144 -30 298 -116 411 -230 154 -154 213 -354 173 -584
-25 -142 -97 -345 -120 -339 -29 7 -1296 744 -1296 753 0 19 100 143 158 196
189 174 448 252 674 204z"/>
<path d="M12278 41950 c-125 -26 -179 -45 -303 -106 -324 -159 -579 -436 -674
-733 -43 -134 -54 -210 -54 -381 0 -182 15 -278 73 -453 95 -285 335 -654 561
-859 277 -252 571 -368 894 -355 307 13 607 160 876 428 244 244 353 517 335
844 -16 297 -111 577 -296 871 -270 429 -598 686 -959 749 -118 21 -343 19
-453 -5z m352 -432 c135 -42 260 -120 381 -239 297 -293 521 -759 522 -1089 1
-159 -49 -282 -165 -405 -200 -214 -476 -320 -705 -272 -196 42 -430 202 -594
405 -227 281 -357 585 -375 876 -17 267 125 497 403 652 177 99 362 124 533
72z"/>
<path d="M39391 39880 c-122 -32 -242 -102 -384 -224 l-58 -50 53 -54 c29 -29
101 -99 160 -153 l107 -100 53 40 c71 53 171 99 248 113 119 23 265 -22 399
-122 144 -106 299 -295 353 -428 18 -46 23 -76 23 -152 0 -83 -4 -102 -27
-150 -32 -65 -113 -159 -173 -200 -24 -17 -66 -35 -92 -41 -96 -22 -122 -8
-515 284 -396 294 -404 300 -514 355 -258 129 -510 147 -718 53 -227 -103
-422 -326 -487 -556 -34 -120 -32 -306 5 -430 132 -439 633 -777 1154 -778 67
0 122 -1 122 -3 0 -2 -16 -29 -35 -61 -84 -138 -95 -267 -34 -391 42 -86 165
-208 278 -276 l82 -49 90 89 c50 49 105 107 122 128 l31 39 -24 16 c-134 89
-178 170 -132 246 10 17 277 298 592 625 315 327 593 622 618 655 133 179 163
367 93 585 -62 192 -176 371 -355 557 -175 182 -318 287 -497 365 -201 86
-380 109 -538 68z m-537 -1253 c96 -35 189 -94 395 -250 258 -196 372 -264
509 -306 l54 -16 -174 -175 c-216 -219 -290 -265 -467 -290 -231 -33 -571 108
-756 313 -68 75 -108 154 -131 255 -21 92 -11 172 31 257 48 100 182 207 291
235 58 14 174 3 248 -23z"/>
<path d="M8459 38471 c-245 -45 -474 -161 -651 -331 -337 -320 -465 -708 -378
-1142 60 -292 199 -536 450 -789 387 -389 790 -566 1201 -528 321 30 576 161
792 407 144 164 259 365 313 547 36 121 45 344 20 478 -33 176 -132 413 -209
502 l-33 38 -151 -173 -151 -173 38 -71 c56 -105 81 -194 87 -317 7 -128 -11
-221 -62 -328 -111 -232 -305 -404 -515 -457 -83 -21 -234 -14 -340 16 -104
29 -240 95 -346 168 -140 96 -131 85 -99 124 15 18 309 356 654 751 344 395
627 722 629 726 1 4 -46 48 -105 98 -297 248 -496 365 -728 430 -71 19 -120
25 -230 28 -77 2 -161 0 -186 -4z m240 -457 c35 -8 96 -28 135 -44 79 -34 276
-149 276 -162 0 -7 -791 -920 -965 -1115 l-25 -28 -52 55 c-162 172 -248 400
-235 620 7 113 26 179 78 281 89 171 256 321 425 380 113 39 226 43 363 13z"/>
<path d="M40800 37004 c-597 -459 -1086 -839 -1088 -844 -2 -6 209 -291 274
-368 1 -2 278 209 616 469 749 577 815 622 978 665 93 25 270 23 373 -5 202
-53 386 -212 486 -421 34 -72 36 -80 36 -181 0 -104 -1 -107 -43 -192 -76
-153 -122 -194 -926 -813 l-724 -557 136 -176 c74 -97 140 -182 147 -189 9
-11 150 93 716 529 806 620 824 635 945 761 184 193 258 355 257 563 -2 168
-52 313 -174 495 -209 312 -494 481 -858 508 l-94 7 146 113 c80 62 148 116
150 120 4 6 -221 303 -256 339 -10 10 -239 -161 -1097 -823z"/>
<path d="M16321 37344 c-33 -60 -2814 -4978 -6179 -10929 l-6119 -10820 1045
-5 1045 -5 33 -60 c59 -105 55 -162 -14 -208 -21 -13 -368 -186 -772 -383
-404 -198 -762 -376 -795 -398 -132 -85 -231 -221 -270 -371 -24 -91 -22 -294
5 -425 105 -520 445 -977 820 -1106 77 -26 295 -26 395 0 85 22 223 74 230 86
3 5 -37 97 -89 204 l-94 195 -63 -21 c-97 -31 -257 -36 -331 -9 -165 57 -293
210 -397 473 -70 177 -81 371 -28 476 48 93 145 168 273 212 106 37 193 19
261 -52 17 -18 135 -192 262 -387 255 -389 297 -446 400 -544 271 -255 569
-315 892 -177 417 177 606 606 459 1040 -34 98 -115 248 -186 343 -151 201
-387 371 -622 447 l-82 27 58 49 c134 112 176 197 170 335 -3 73 -9 96 -41
163 -20 43 -37 82 -37 87 0 5 719 10 1722 11 l1721 3 4499 7955 c2474 4375
4504 7965 4511 7977 11 20 53 -49 475 -796 254 -449 462 -822 462 -827 0 -7
-5461 -9671 -8023 -14196 l-66 -118 2982 0 2983 0 2553 4515 c1404 2483 2556
4515 2560 4515 9 -1 926 -1630 923 -1641 -1 -6 -935 -1661 -2076 -3677 -1140
-2017 -2078 -3677 -2085 -3689 l-12 -23 2984 0 2984 0 589 1041 c324 573 593
1048 599 1056 9 12 139 -212 607 -1039 l595 -1053 357 -3 357 -2 -15 22 c-58
93 -1536 2720 -1533 2726 39 75 3552 6282 3556 6282 3 0 1154 -2031 2558
-4513 l2551 -4512 351 -3 c193 -1 351 -1 351 2 0 2 -1228 2176 -2730 4830
l-2729 4827 1777 3144 c977 1730 1780 3143 1785 3142 10 -3 8908 -15739 8903
-15745 -3 -2 -42 -10 -88 -18 -306 -52 -574 -224 -743 -478 -105 -158 -202
-389 -240 -571 -23 -110 -30 -284 -16 -386 77 -530 630 -1036 1341 -1227 133
-35 138 -36 335 -36 182 -1 208 1 285 23 369 105 640 337 809 692 59 122 94
227 118 347 22 113 22 328 -1 430 -94 426 -388 767 -870 1008 l-130 65 -238
422 c-316 558 -321 568 -306 562 61 -22 1412 -400 1487 -416 62 -13 151 -22
251 -26 137 -5 166 -3 240 16 309 77 519 337 606 751 21 102 24 307 5 395 -29
139 -92 293 -170 413 -22 34 -37 62 -33 62 4 0 84 -22 177 -49 94 -27 173 -46
178 -42 4 4 34 99 66 212 40 140 55 206 47 210 -11 7 -2582 738 -2622 746 -19
4 -26 -13 -84 -216 -35 -122 -61 -224 -58 -227 3 -2 343 -101 755 -218 777
-221 881 -254 998 -315 135 -69 272 -234 331 -396 62 -170 46 -391 -41 -582
-98 -213 -299 -298 -586 -248 -46 8 -473 125 -948 260 -476 134 -865 244 -867
242 -1 -1 -8 -17 -16 -35 l-13 -33 -5745 10160 c-4264 7540 -5748 10157 -5756
10148 -6 -7 -888 -1563 -1960 -3459 -1151 -2038 -1951 -3443 -1955 -3435 -4 6
-885 1563 -1957 3459 l-1949 3447 -1954 -3454 c-1074 -1900 -1956 -3455 -1959
-3455 -3 0 -883 1551 -1955 3448 -1071 1896 -1952 3451 -1956 3456 -4 4 -34
-41 -68 -100z m10989 -6614 c238 -421 439 -779 447 -795 l15 -31 -1777 -3142
c-978 -1728 -1780 -3142 -1784 -3142 -9 1 -926 1631 -923 1642 2 7 3450 6108
3530 6246 l25 44 17 -29 c10 -15 212 -372 450 -793z m16535 -15432 c218 -33
514 -163 715 -312 145 -108 294 -274 353 -391 52 -106 62 -152 62 -285 -1
-117 -3 -131 -36 -227 -52 -149 -110 -243 -209 -344 -139 -140 -272 -193 -485
-193 -194 1 -371 48 -615 165 -191 92 -334 192 -476 333 -187 186 -241 286
-251 466 -15 271 164 607 385 723 153 80 328 101 557 65z m-37592 -614 c234
-60 496 -312 595 -571 23 -59 26 -83 27 -189 0 -119 0 -120 -38 -197 -45 -91
-110 -149 -217 -194 -57 -24 -78 -28 -170 -28 -95 0 -110 3 -162 28 -131 64
-207 150 -408 462 -159 247 -261 370 -375 452 l-30 22 195 95 c107 52 227 104
265 115 88 25 233 27 318 5z"/>
<path d="M5574 36438 c-43 -62 -102 -147 -131 -189 l-53 -77 310 -213 c170
-118 310 -218 310 -222 0 -5 -44 -72 -97 -150 -54 -78 -99 -144 -101 -148 -2
-4 57 -49 130 -100 73 -50 145 -100 160 -111 l26 -18 104 150 c57 82 106 150
111 150 4 0 342 -230 750 -512 408 -282 771 -530 807 -552 36 -21 101 -53 145
-69 70 -27 94 -31 185 -31 93 -1 111 2 161 25 78 37 188 145 264 259 64 96
145 254 145 283 0 14 -279 217 -297 217 -5 0 -28 -33 -52 -74 -109 -186 -207
-247 -317 -197 -37 17 -1480 1005 -1512 1036 -13 12 18 62 194 311 l43 61
-152 105 c-84 58 -157 107 -163 111 -6 3 -64 -73 -134 -174 -68 -99 -128 -178
-134 -176 -6 3 -145 97 -310 211 -164 113 -302 206 -307 206 -4 0 -42 -51 -85
-112z"/>
<path d="M43246 34850 c-408 -47 -857 -263 -1151 -554 -186 -184 -302 -390
-368 -655 -30 -121 -30 -352 1 -463 50 -182 149 -355 281 -491 91 -94 171
-154 272 -202 74 -35 248 -85 298 -85 84 -1 76 -11 -81 -97 -84 -47 -154 -86
-156 -88 -2 -1 42 -83 97 -181 74 -134 104 -179 118 -178 29 2 3288 1821 3288
1836 0 7 -47 97 -104 200 -98 175 -106 186 -125 176 -12 -6 -279 -155 -594
-330 -315 -175 -575 -318 -577 -318 -2 0 9 38 25 85 51 150 63 226 57 349 -12
257 -143 524 -354 727 -147 140 -316 226 -514 259 -90 15 -320 20 -413 10z
m367 -476 c100 -22 240 -92 310 -155 74 -66 147 -169 186 -262 78 -189 65
-384 -42 -592 -110 -214 -472 -480 -827 -608 -156 -57 -238 -72 -390 -72 -223
1 -356 51 -491 185 -81 81 -135 173 -180 305 -34 100 -35 289 -1 386 65 190
238 388 475 546 338 226 695 325 960 267z"/>
<path d="M5246 34529 c-60 -113 -104 -205 -99 -210 5 -5 297 -162 648 -350
797 -424 939 -516 1077 -698 174 -230 189 -485 44 -745 -128 -229 -328 -310
-573 -235 -89 28 -83 25 -986 506 -429 229 -786 417 -795 419 -13 3 -42 -44
-126 -202 -59 -113 -104 -210 -100 -214 20 -18 1715 -917 1794 -951 229 -99
433 -118 620 -60 247 78 496 371 596 706 25 81 27 105 27 245 0 181 -17 260
-86 403 -23 48 -42 87 -40 87 1 0 77 -41 168 -91 91 -50 167 -90 169 -88 9 10
205 384 202 386 -7 7 -2420 1293 -2426 1293 -4 0 -55 -91 -114 -201z"/>
<path d="M4001 32029 c-110 -286 -155 -390 -164 -386 -106 43 -676 267 -685
269 -9 2 -40 -63 -93 -197 -43 -110 -81 -207 -84 -217 -5 -13 56 -40 345 -155
192 -76 350 -142 350 -147 0 -5 -29 -83 -65 -174 -36 -90 -64 -166 -63 -167 9
-7 345 -135 354 -135 7 0 42 76 79 170 l66 169 47 -18 c694 -277 1688 -665
1743 -683 62 -19 96 -23 204 -23 127 0 132 1 197 33 118 58 216 197 286 408
23 69 62 232 62 259 0 5 -330 135 -343 135 -7 0 -21 -30 -31 -66 -28 -96 -88
-216 -125 -247 -36 -30 -85 -42 -139 -34 -52 7 -1722 668 -1722 681 0 6 36 99
79 207 l78 197 -166 65 c-91 37 -174 69 -183 73 -13 4 -20 -1 -27 -17z"/>
<path d="M46506 31701 c-115 -36 -211 -71 -213 -77 -2 -5 82 -279 186 -608
120 -380 184 -599 177 -601 -6 -2 -717 -227 -1579 -498 -862 -272 -1571 -497
-1574 -500 -5 -6 141 -484 151 -494 3 -3 3096 969 3158 992 9 4 66 -165 202
-598 104 -331 191 -604 193 -606 3 -5 424 127 432 134 5 5 -908 2907 -918
2916 -3 4 -100 -23 -215 -60z"/>
<path d="M2285 30317 c-34 -97 -133 -442 -129 -446 7 -7 498 -159 502 -155 10
7 140 450 134 455 -4 4 -106 37 -227 73 -121 37 -233 71 -248 76 -20 7 -29 6
-32 -3z"/>
<path d="M3277 30013 c-8 -14 -138 -445 -135 -447 2 -1 532 -164 1178 -361
646 -197 1236 -377 1311 -400 l137 -42 69 226 c39 124 67 229 64 232 -6 7
-2594 799 -2610 799 -5 0 -12 -3 -14 -7z"/>
<path d="M2880 28687 c0 -13 -92 -422 -96 -426 -2 -2 -167 32 -366 76 -200 44
-367 77 -371 73 -8 -7 -107 -442 -103 -448 2 -1 167 -39 367 -83 200 -45 366
-83 368 -85 2 -2 -13 -83 -34 -179 -21 -97 -36 -178 -33 -180 7 -8 370 -87
374 -82 2 2 21 81 43 176 21 94 40 174 43 176 2 3 414 -86 914 -196 818 -182
920 -202 1024 -206 244 -10 380 61 469 243 58 118 107 363 99 494 l-3 54 -165
38 c-91 20 -173 37 -182 38 -13 0 -18 -12 -23 -47 -11 -84 -44 -206 -68 -253
-29 -57 -84 -90 -149 -90 -39 0 -1803 382 -1814 392 -1 2 17 93 42 203 24 109
44 206 44 215 0 13 -35 24 -177 55 -98 20 -184 40 -190 42 -7 3 -13 3 -13 0z"/>
<path d="M45470 28089 c-141 -12 -347 -55 -484 -100 -235 -77 -403 -176 -557
-329 -303 -301 -413 -690 -319 -1124 96 -443 326 -734 702 -890 119 -49 256
-85 357 -93 l84 -6 -5 29 c-2 16 -20 119 -38 229 l-34 201 -99 21 c-309 68
-515 291 -572 620 -62 357 68 611 398 778 84 42 263 106 338 120 33 6 37 4 42
-17 3 -12 78 -453 167 -978 90 -525 166 -959 171 -964 15 -17 354 56 539 116
478 156 748 464 825 943 46 282 -17 599 -172 858 -64 107 -219 268 -334 347
-283 194 -619 273 -1009 239z m555 -503 c217 -60 401 -208 486 -391 58 -126
73 -199 73 -360 0 -124 -3 -149 -27 -220 -55 -166 -173 -295 -355 -387 -122
-63 -277 -117 -291 -103 -4 6 -63 334 -130 730 -67 396 -125 728 -128 739 -5
17 3 18 153 13 104 -3 180 -10 219 -21z"/>
<path d="M3065 26693 c-271 -41 -501 -207 -636 -457 -135 -250 -193 -664 -134
-951 42 -200 115 -337 255 -476 83 -83 110 -103 191 -143 121 -59 243 -88 368
-87 173 0 287 48 412 171 133 132 214 283 348 645 230 622 271 702 393 767 36
19 58 23 138 23 86 0 102 -3 162 -32 36 -17 85 -50 107 -73 107 -110 163 -342
140 -573 -23 -229 -87 -401 -191 -513 -95 -101 -200 -144 -390 -159 -63 -6
-78 -10 -79 -23 0 -10 -10 -107 -23 -217 -13 -110 -21 -204 -18 -209 7 -13
235 0 317 18 168 36 336 118 453 221 208 185 336 579 335 1035 -1 325 -72 531
-250 720 -90 96 -173 157 -275 204 -108 50 -179 66 -319 73 -191 9 -304 -22
-432 -118 -146 -109 -244 -297 -451 -867 -140 -384 -207 -500 -327 -567 -49
-27 -63 -30 -144 -30 -73 0 -99 4 -136 23 -132 65 -199 205 -199 417 0 222 59
436 159 572 59 81 184 143 318 158 60 7 63 8 68 38 14 87 45 401 39 406 -7 7
-158 11 -199 4z"/>
<path d="M45649 24890 c-259 -20 -487 -88 -682 -203 -283 -168 -466 -403 -539
-694 -20 -77 -23 -114 -23 -293 0 -163 4 -222 19 -290 71 -326 232 -565 481
-712 73 -43 152 -77 265 -113 94 -29 302 -68 310 -57 3 4 4 107 2 229 l-3 222
-32 6 c-85 17 -210 61 -287 101 -255 131 -360 320 -347 623 6 142 26 218 82
312 112 185 381 321 710 360 146 17 452 7 588 -20 311 -62 526 -193 626 -381
109 -205 101 -542 -18 -713 -74 -106 -231 -204 -400 -249 l-83 -22 7 -220 c4
-122 10 -224 13 -228 8 -7 127 12 222 37 237 61 421 169 536 313 63 80 148
258 178 374 78 301 49 653 -74 904 -111 228 -317 433 -556 552 -249 125 -644
189 -995 162z"/>
<path d="M4400 23734 c-228 -7 -631 -20 -895 -28 -505 -16 -616 -27 -773 -72
-311 -90 -495 -297 -553 -624 -17 -96 -14 -329 5 -431 48 -257 172 -466 383
-644 35 -30 61 -56 56 -56 -4 -1 -89 -4 -188 -8 l-180 -6 4 -215 c2 -118 7
-219 11 -224 7 -7 2245 52 2619 70 l134 7 -6 229 c-3 126 -7 232 -9 234 -3 2
-297 -5 -654 -16 -694 -22 -1038 -26 -1119 -15 -251 35 -460 183 -565 400 -49
102 -72 210 -73 355 -1 96 3 128 23 189 67 209 253 317 583 336 56 3 426 14
822 25 396 11 771 23 834 26 l114 6 -8 232 c-4 127 -9 234 -12 239 -5 8 -13 8
-553 -9z"/>
<path d="M44470 21903 c0 -5 -12 -106 -26 -226 -15 -120 -24 -221 -21 -224 4
-3 347 -48 764 -99 417 -51 796 -100 843 -109 186 -37 344 -102 446 -183 153
-122 254 -375 240 -597 -20 -290 -140 -465 -353 -510 -132 -28 -226 -21 -1181
96 -502 62 -915 109 -919 106 -7 -7 -65 -468 -60 -473 2 -2 408 -54 903 -116
871 -108 905 -112 1104 -112 241 -1 313 11 455 78 296 139 459 456 459 891 0
285 -56 422 -282 684 -28 33 -37 48 -25 45 42 -9 1355 -165 1358 -162 5 5 55
402 55 437 l0 26 -1863 228 c-1024 125 -1870 228 -1879 227 -10 0 -18 -3 -18
-7z"/>
<path d="M3250 20422 c-1015 -146 -1847 -267 -1850 -269 -4 -4 55 -451 66
-498 5 -20 60 -13 1872 248 1026 147 1868 270 1871 273 5 5 -56 454 -67 497
-2 10 -13 17 -26 16 -11 -1 -851 -121 -1866 -267z"/>
<path d="M41658 13036 c-65 -106 -118 -197 -118 -202 1 -8 3185 -1935 3221
-1949 11 -4 45 44 133 191 66 109 115 199 110 204 -8 8 -3222 1950 -3227 1950
-1 0 -55 -87 -119 -194z"/>
<path d="M7494 11989 c-373 -243 -708 -455 -743 -471 -103 -48 -200 -68 -322
-68 -136 0 -193 12 -296 61 -127 60 -244 179 -328 332 -20 37 -41 67 -46 67
-5 0 -54 -29 -109 -65 -55 -36 -145 -94 -200 -130 l-100 -65 26 -52 c82 -163
215 -289 373 -353 84 -34 278 -75 396 -83 l104 -7 -184 -119 -183 -118 75
-117 c42 -64 96 -147 120 -184 32 -51 48 -67 60 -63 14 6 2276 1469 2295 1485
8 7 -233 383 -248 388 -6 2 -316 -195 -690 -438z"/>
<path d="M41104 11795 c-222 -40 -393 -129 -567 -294 -200 -190 -348 -428
-423 -677 -32 -107 -44 -327 -25 -440 57 -324 272 -672 580 -936 265 -228 510
-365 768 -430 74 -19 114 -22 258 -22 150 0 181 4 265 26 276 74 491 211 668
423 279 337 374 697 283 1079 -62 262 -210 506 -447 737 -299 291 -642 483
-954 534 -113 18 -307 18 -406 0z m286 -461 c219 -41 438 -153 656 -337 214
-180 378 -409 444 -622 75 -246 -7 -505 -230 -725 -85 -83 -157 -130 -258
-168 -97 -36 -275 -43 -389 -14 -174 44 -337 128 -525 269 -246 186 -471 470
-549 693 -31 87 -33 267 -5 350 50 148 175 329 291 423 70 57 183 114 257 133
74 17 211 17 308 -2z"/>
<path d="M8573 11509 l-132 -110 62 -62 c62 -62 97 -117 97 -155 0 -10 -10
-34 -23 -53 -12 -19 -301 -267 -642 -551 -341 -285 -647 -544 -681 -577 -158
-153 -223 -334 -195 -537 30 -214 136 -442 309 -664 220 -281 462 -453 736
-522 149 -38 317 -13 486 72 71 36 220 135 220 146 0 4 -227 280 -265 322 -9
10 -31 2 -106 -36 -113 -57 -194 -77 -283 -69 -168 16 -345 145 -494 360 -193
280 -201 484 -24 656 124 120 234 151 340 97 26 -14 130 -102 237 -202 512
-478 536 -498 697 -580 147 -74 241 -97 393 -98 121 0 136 2 217 31 217 76
415 247 509 438 53 109 70 179 76 320 4 100 2 135 -16 210 -53 225 -229 468
-454 629 -173 124 -427 216 -639 232 l-86 7 45 61 c76 102 97 157 97 261 1 82
-2 96 -31 155 -43 87 -145 205 -237 274 -41 31 -76 56 -78 56 -2 0 -62 -50
-135 -111z m403 -1009 c163 -41 379 -170 490 -293 132 -145 191 -310 164 -459
-45 -248 -325 -405 -562 -315 -123 47 -202 107 -443 336 -181 173 -291 258
-408 316 l-89 43 169 141 c234 196 344 249 519 250 50 1 111 -7 160 -19z"/>
<path d="M38551 10299 c-264 -34 -594 -246 -981 -630 -249 -247 -387 -462
-466 -724 -31 -105 -38 -254 -15 -345 45 -180 161 -326 325 -409 169 -86 362
-82 569 13 119 54 232 132 721 500 248 187 473 350 505 364 70 32 161 41 195
19 60 -40 70 -153 26 -316 -20 -72 -24 -79 -58 -95 -180 -86 -455 -362 -577
-580 -51 -91 -100 -217 -120 -310 -46 -207 31 -499 183 -696 69 -89 200 -187
350 -262 112 -57 119 -66 109 -142 -10 -73 -45 -149 -96 -213 l-49 -60 113
-113 112 -112 57 64 c119 131 170 250 164 385 l-3 83 65 0 c216 1 477 149 726
413 102 108 210 267 255 375 114 274 83 592 -82 836 -136 200 -308 334 -509
398 -64 20 -96 23 -222 23 -82 0 -148 0 -148 1 0 0 9 36 20 80 60 232 24 421
-103 541 -80 76 -143 97 -292 97 l-120 1 23 90 c26 101 31 244 12 316 -56 206
-264 375 -503 408 -87 12 -94 12 -186 0z m255 -417 c55 -28 109 -93 131 -156
21 -63 24 -203 4 -298 l-13 -67 -498 -366 c-274 -200 -525 -380 -557 -400 -71
-42 -172 -69 -221 -60 -73 14 -112 42 -140 103 -51 107 -31 304 46 457 105
210 340 479 535 613 105 72 266 148 379 177 121 33 269 31 334 -3z m1077
-1457 c109 -23 199 -77 303 -180 96 -96 141 -168 169 -275 19 -71 19 -220 0
-293 -66 -253 -343 -522 -610 -592 -72 -19 -204 -21 -266 -5 -145 39 -333 198
-403 340 -131 269 -59 537 212 791 204 191 390 258 595 214z"/>
<path d="M9685 7868 c-605 -709 -1157 -1356 -1227 -1437 l-127 -149 92 -79
c51 -43 135 -116 188 -161 l97 -82 982 1151 c540 632 984 1149 986 1146 2 -2
-118 -795 -266 -1762 l-270 -1759 36 -30 c20 -16 124 -105 232 -197 108 -93
199 -165 203 -161 3 4 532 624 1174 1377 643 754 1193 1398 1222 1431 l54 62
-168 143 c-92 78 -177 151 -189 161 -20 18 -27 11 -1005 -1135 -541 -634 -985
-1149 -986 -1143 -2 6 114 803 256 1771 143 968 257 1763 255 1767 -5 7 -390
338 -424 364 -12 10 -204 -210 -1115 -1278z"/>
<path d="M36264 8551 c-166 -77 -369 -257 -435 -386 -52 -100 -63 -157 -56
-294 16 -324 176 -985 637 -2631 115 -410 230 -824 256 -920 26 -96 50 -178
54 -182 7 -9 414 278 418 295 1 7 -150 512 -337 1122 -187 611 -338 1111 -337
1112 1 1 414 -302 917 -673 502 -372 926 -684 940 -695 l26 -18 212 150 c116
82 211 153 211 158 0 4 -553 393 -1229 865 l-1230 857 -20 87 c-96 413 -104
466 -76 560 27 90 131 173 301 242 l82 33 -90 126 c-50 69 -104 147 -122 173
-17 26 -38 48 -46 47 -8 0 -42 -13 -76 -28z"/>
<path d="M28895 7380 c-244 -28 -466 -93 -663 -195 -286 -147 -483 -346 -614
-621 -75 -158 -109 -302 -115 -494 -7 -186 10 -312 62 -466 69 -209 147 -328
334 -515 239 -238 413 -353 1019 -670 482 -253 652 -356 833 -508 282 -236
410 -469 411 -756 1 -71 -5 -133 -16 -175 -79 -314 -353 -492 -799 -518 l-122
-7 0 -42 c1 -24 2 -93 3 -155 l2 -111 128 6 c586 29 984 291 1096 721 41 155
46 388 12 543 -66 305 -272 549 -696 825 -155 101 -351 215 -683 397 -433 237
-607 347 -786 496 -170 141 -328 338 -400 497 -61 133 -76 214 -75 408 0 148
4 188 22 255 77 281 262 493 559 639 219 108 469 154 772 143 238 -9 428 -56
647 -161 244 -117 404 -261 466 -421 l16 -40 216 -3 217 -2 -47 91 c-78 151
-179 279 -314 397 -251 220 -588 370 -958 428 -118 18 -418 26 -527 14z"/>
<path d="M21985 7233 c-16 -42 -1935 -5483 -1935 -5488 0 -3 80 -4 177 -3
l177 3 962 2745 c530 1510 963 2748 964 2753 0 4 -76 7 -169 7 -152 0 -170 -2
-176 -17z"/>
<path d="M21635 4518 c-527 -1503 -961 -2743 -963 -2756 l-4 -22 168 2 169 3
277 790 c153 435 294 836 314 893 l36 102 1153 0 1153 0 16 -42 c9 -24 151
-425 315 -893 l299 -850 163 0 c140 0 164 2 161 15 -2 8 -431 1247 -954 2753
l-951 2737 -197 0 -197 0 -958 -2732z m1678 792 l523 -1485 -1045 -3 c-574 -1
-1046 0 -1049 3 -3 3 228 670 513 1482 600 1714 528 1509 532 1497 2 -5 239
-677 526 -1494z"/>
<path d="M25512 4498 l3 -2753 168 -3 167 -2 0 2755 0 2755 -170 0 -170 0 2
-2752z"/>
<path d="M26052 4498 l3 -2753 168 -3 167 -2 0 2755 0 2755 -170 0 -170 0 2
-2752z"/>
<path d="M15415 7228 c-3 -7 -4 -1244 -3 -2748 l3 -2735 168 -3 167 -2 0 2750
0 2750 -165 0 c-123 0 -167 -3 -170 -12z"/>
<path d="M15970 4490 l0 -2750 168 2 167 3 5 2434 5 2433 1359 -2398 c748
-1320 1370 -2416 1383 -2437 l23 -37 185 0 185 0 0 2750 0 2750 -165 0 -165 0
-2 -2447 -3 -2447 -1377 2444 -1376 2445 -196 3 -196 2 0 -2750z"/>
<path d="M31320 7020 l0 -160 705 0 705 0 2 -2557 3 -2558 168 -3 167 -2 0
2560 0 2560 105 0 105 0 0 -2560 0 -2560 165 0 165 0 0 2560 0 2560 693 2 692
3 3 158 3 157 -1841 0 -1840 0 0 -160z"/>
<path d="M28905 6859 c-314 -39 -571 -185 -715 -406 -123 -187 -154 -384 -99
-621 38 -166 117 -299 268 -455 202 -209 433 -359 981 -642 312 -160 529 -286
672 -388 435 -312 649 -592 714 -934 22 -117 15 -386 -14 -518 -108 -497 -440
-798 -1016 -921 -484 -103 -1001 -10 -1386 247 -168 112 -319 284 -381 434
l-23 55 -191 0 c-105 0 -194 -3 -198 -6 -8 -8 31 -111 76 -200 171 -340 611
-649 1117 -783 200 -53 337 -73 550 -78 231 -6 392 10 595 62 654 165 1059
552 1176 1124 29 141 36 394 15 539 -72 488 -350 874 -883 1225 -186 123 -305
189 -723 402 -206 105 -418 217 -470 249 -289 176 -467 366 -541 579 -24 69
-29 98 -29 182 0 58 6 125 15 158 64 246 273 392 593 415 l97 7 3 143 3 142
-68 -1 c-38 -1 -99 -5 -138 -10z"/>
</g>
</svg>
